<?xml version="1.0" standalone="no"?>
<!DOCTYPE svg PUBLIC "-//W3C//DTD SVG 20010904//EN"
 "http://www.w3.org/TR/2001/REC-SVG-20010904/DTD/svg10.dtd">
<svg version="1.0" xmlns="http://www.w3.org/2000/svg"
 width="1000.000000pt" height="1000.000000pt" viewBox="0 0 1000.000000 1000.000000"
 preserveAspectRatio="xMidYMid meet">
<metadata>
Created by potrace 1.11, written by Peter Selinger 2001-2013
</metadata>
<g transform="translate(0.000000,1000.000000) scale(0.100000,-0.100000)"
fill="#000000" stroke="none">
<path d="M4930 9119 c-17 -17 -42 -54 -56 -80 -49 -98 -117 -275 -120 -314 -1
-22 -5 -58 -9 -80 -3 -22 -8 -56 -11 -75 -5 -34 -67 -414 -78 -476 -3 -17 -8
-47 -11 -67 -3 -20 -7 -54 -10 -74 -3 -20 -8 -50 -11 -67 -3 -17 -7 -44 -10
-61 -2 -16 -6 -41 -9 -55 -3 -14 -7 -45 -10 -69 -6 -49 -13 -93 -21 -135 l-6
-28 -67 7 c-36 3 -88 9 -116 12 -74 7 -352 7 -412 0 -221 -29 -319 -72 -473
-212 -84 -75 -98 -85 -125 -80 -147 25 -292 25 -435 0 -14 -2 -43 -7 -65 -10
-22 -3 -48 -8 -57 -11 -17 -5 -42 -10 -93 -20 -73 -13 -234 -87 -339 -157 -65
-43 -193 -169 -239 -237 -17 -25 -35 -49 -39 -55 -20 -24 -76 -127 -111 -203
-75 -165 -110 -351 -111 -592 -2 -315 27 -486 154 -920 6 -19 12 -44 14 -55 2
-11 6 -28 11 -37 4 -10 4 -25 1 -34 -4 -10 -2 -13 6 -8 8 5 9 2 5 -9 -3 -10
-3 -17 2 -17 5 0 11 -9 14 -20 3 -11 1 -18 -3 -15 -5 3 -12 0 -16 -6 -4 -8 -3
-9 4 -5 8 5 12 0 12 -12 0 -11 6 -22 14 -25 14 -6 31 -62 41 -142 4 -27 18
-88 32 -135 13 -47 44 -155 69 -240 44 -154 60 -209 108 -370 14 -47 49 -164
77 -260 76 -260 83 -283 128 -435 23 -77 58 -193 77 -257 83 -284 301 -994
378 -1236 39 -121 41 -137 14 -133 -5 0 -8 -4 -8 -11 0 -6 -7 -3 -15 8 -15 19
-15 19 -8 -1 6 -18 5 -19 -12 -5 -11 9 -16 10 -11 3 4 -8 2 -13 -4 -13 -6 0
-8 -5 -4 -12 4 -7 3 -8 -5 -4 -6 4 -9 11 -6 16 3 5 0 12 -6 16 -8 4 -9 3 -5
-4 4 -7 1 -12 -8 -12 -8 0 -17 -6 -19 -12 -4 -10 -6 -10 -6 0 -1 6 -6 12 -13
12 -6 0 -8 -3 -5 -7 4 -3 -3 -13 -15 -21 -16 -11 -23 -12 -26 -4 -3 9 -9 9
-23 1 -11 -5 -17 -14 -14 -19 3 -5 0 -12 -6 -16 -7 -4 -9 -3 -5 4 3 6 2 13 -4
17 -5 3 -10 1 -10 -5 0 -16 -22 -35 -40 -35 -9 0 -15 -9 -14 -22 1 -13 -4 -19
-11 -17 -14 6 -36 -40 -29 -61 4 -8 1 -15 -5 -15 -6 0 -11 5 -11 12 0 6 -3 8
-6 5 -10 -10 17 -38 29 -30 6 3 7 1 3 -6 -4 -6 -12 -9 -17 -6 -5 4 -9 3 -10
-2 0 -4 -2 -16 -4 -26 -2 -9 1 -15 6 -11 5 3 9 -1 9 -8 0 -9 3 -9 10 2 7 11 9
7 7 -15 -1 -16 -6 -33 -12 -37 -5 -4 5 -6 23 -4 28 3 31 1 20 -12 -12 -13 -10
-14 11 -3 13 7 21 9 17 3 -3 -5 5 -17 18 -26 18 -12 26 -12 29 -3 3 6 4 -2 2
-19 -2 -21 1 -31 11 -31 10 0 11 4 2 14 -8 11 -7 12 6 7 9 -3 16 -10 16 -16 0
-5 4 -7 9 -4 13 9 34 -21 25 -36 -6 -10 -5 -11 7 -1 9 7 20 8 29 3 8 -5 19 -6
25 -2 5 3 4 -1 -3 -10 -10 -13 -10 -18 -1 -24 8 -4 9 -3 5 4 -4 7 -4 12 1 13
4 0 16 2 26 4 10 2 17 -3 17 -12 0 -13 -2 -14 -18 -2 -15 13 -16 12 -3 -3 7
-10 17 -16 21 -13 13 8 40 -6 33 -18 -4 -6 -1 -7 8 -1 23 14 39 13 39 -2 0 -8
6 -11 17 -7 12 5 14 3 8 -8 -6 -11 -5 -12 6 -1 7 6 18 12 24 12 5 0 3 -5 -5
-10 -12 -8 -9 -10 12 -10 14 0 28 -5 30 -11 2 -5 10 -11 18 -13 8 -1 26 -8 40
-15 22 -11 23 -10 8 2 -10 8 -18 18 -18 22 0 4 6 2 14 -4 7 -6 22 -8 32 -4 17
6 17 5 5 -10 -8 -10 -11 -20 -7 -24 3 -3 6 -1 6 5 0 8 7 9 25 2 17 -7 23 -6
21 3 -1 7 -1 8 2 4 4 -8 46 -28 70 -33 6 -1 10 2 6 7 -3 5 -10 6 -16 3 -7 -4
-8 -2 -4 5 6 9 11 9 21 1 8 -7 18 -9 23 -6 6 3 16 -2 23 -11 11 -13 11 -17 1
-20 -6 -3 -10 -8 -7 -13 7 -11 -22 -7 -32 5 -4 4 -2 5 6 0 10 -6 12 -4 6 5 -6
9 -4 11 5 5 9 -5 11 -4 6 4 -10 16 -37 -5 -30 -23 4 -9 -3 -12 -20 -11 -14 2
-26 -1 -26 -7 0 -6 7 -8 15 -4 15 5 19 -4 16 -34 -1 -9 1 -11 6 -5 4 6 17 17
27 25 18 14 18 13 13 -10 -4 -14 -4 -20 -1 -13 3 7 13 9 22 6 15 -6 16 -5 2
13 -14 17 -14 18 2 6 9 -8 22 -11 28 -7 5 3 13 0 16 -9 3 -8 12 -17 20 -20 10
-4 12 -2 8 5 -4 7 -1 10 7 7 8 -3 13 -10 12 -15 -2 -12 30 -13 38 -1 4 6 19 4
36 -6 17 -8 33 -12 37 -9 3 4 6 1 6 -5 0 -7 7 -12 16 -12 9 0 12 5 8 12 -4 7
-3 8 5 4 8 -5 9 -12 2 -20 -7 -8 -5 -12 9 -12 10 0 16 4 13 9 -3 5 5 3 16 -5
18 -11 23 -11 32 2 8 12 9 10 4 -7 -5 -18 -3 -22 9 -17 9 3 13 11 9 18 -4 7
-1 7 9 -1 8 -7 18 -10 21 -6 4 3 7 1 7 -6 0 -7 -7 -11 -15 -8 -8 4 -17 1 -21
-6 -4 -7 -4 -9 1 -5 4 4 17 3 28 -3 14 -8 18 -8 13 0 -4 6 -2 11 3 11 6 0 11
-4 11 -10 0 -5 5 -10 11 -10 6 0 8 7 5 16 -7 18 8 11 40 -18 14 -13 24 -16 29
-9 3 6 11 11 16 11 6 0 7 -4 4 -10 -3 -5 -1 -10 4 -10 6 0 11 6 11 13 0 8 3 8
9 -2 7 -11 10 -10 14 5 4 15 5 15 6 3 0 -9 8 -20 17 -23 14 -6 15 -4 4 9 -11
13 -11 16 1 13 8 -2 19 -10 26 -18 10 -13 14 -12 27 5 8 11 16 16 16 12 0 -4
8 -3 18 2 13 7 23 6 30 -1 9 -9 12 -9 12 2 0 7 3 10 6 7 4 -4 16 3 27 16 l19
22 -6 -25 c-3 -14 -3 -20 0 -13 3 7 13 9 22 6 10 -3 13 -1 7 4 -16 13 -19 38
-3 26 17 -13 64 0 60 16 -1 7 2 10 8 6 6 -3 8 -10 6 -14 -3 -4 5 -7 17 -8 12
0 16 1 10 4 -23 8 -14 18 17 18 17 1 30 -4 30 -10 1 -5 7 1 14 14 11 19 23 25
55 27 27 1 39 -1 34 -8 -4 -7 -1 -8 6 -4 7 5 10 15 6 23 -5 14 -3 14 11 2 17
-14 56 -20 48 -7 -3 4 -1 15 4 24 8 15 10 15 15 0 5 -11 3 -15 -5 -10 -7 5 -8
3 -4 -5 6 -9 12 -8 26 4 10 9 24 14 30 10 6 -4 18 -1 27 7 15 11 16 11 10 -5
-4 -11 -3 -16 3 -12 6 3 10 14 10 23 0 14 2 14 9 3 5 -8 7 -21 4 -30 -3 -12
-2 -12 7 2 6 9 16 14 22 11 7 -4 8 -2 4 4 -4 7 -1 12 9 12 9 0 13 -4 10 -10
-3 -6 1 -7 9 -4 9 3 13 11 9 18 -4 6 1 5 10 -3 15 -12 17 -11 17 3 0 19 16 21
26 4 5 -7 3 -8 -7 -3 -12 8 -12 6 0 -8 13 -17 36 -14 26 4 -4 5 1 9 9 9 10 0
13 -6 10 -17 -5 -14 -4 -15 4 -4 6 8 17 11 27 8 9 -4 14 -3 10 3 -4 7 3 7 19
0 21 -8 24 -7 20 8 -5 14 -3 13 10 -2 9 -11 16 -15 16 -8 0 6 7 9 17 5 12 -5
14 -3 8 7 -5 9 -4 11 4 6 6 -4 9 -11 6 -16 -3 -5 -1 -11 5 -15 6 -3 10 4 11
17 0 13 3 17 6 11 2 -7 11 -13 19 -13 10 0 12 5 8 13 -5 7 0 6 11 -3 21 -17
24 -17 37 2 6 9 7 5 3 -12 -6 -20 -5 -22 5 -13 7 6 19 9 26 6 10 -4 13 0 8 13
-4 13 -1 12 8 -4 8 -12 17 -19 21 -15 11 11 38 13 31 2 -8 -13 10 -11 25 4 11
10 12 7 6 -13 -4 -17 -3 -21 3 -11 5 7 12 9 14 5 3 -5 3 -4 2 3 -2 7 2 15 8
19 6 4 8 3 5 -3 -9 -15 18 -24 31 -11 8 8 16 7 28 -3 18 -15 21 -14 42 4 7 6
12 6 11 1 -3 -19 1 -34 12 -34 5 0 7 4 4 10 -3 6 1 7 9 4 9 -3 14 -9 11 -13
-2 -4 6 -6 18 -5 12 1 22 3 22 4 0 1 10 3 22 6 15 2 27 -3 35 -16 7 -11 16
-20 21 -20 4 0 6 4 3 9 -3 5 1 11 9 14 9 4 12 1 9 -7 -7 -17 29 -14 53 5 16
13 17 12 5 -2 -10 -14 -10 -18 3 -23 9 -3 14 -2 11 2 -3 4 6 8 19 8 12 0 21
-5 19 -11 -3 -6 6 -11 20 -11 14 0 22 4 20 8 -3 4 0 8 5 8 6 0 11 -5 11 -11 0
-5 5 -7 10 -4 6 3 13 -1 16 -10 6 -13 8 -14 15 -3 7 11 11 10 19 -2 6 -10 10
-11 10 -2 0 6 7 12 15 12 8 0 15 -6 15 -12 0 -10 2 -10 8 0 5 7 18 14 30 17
16 3 19 0 15 -12 -4 -11 -2 -14 5 -9 6 4 20 2 31 -4 13 -7 22 -7 26 0 9 15 27
12 19 -2 -4 -7 3 -4 16 7 l23 20 -6 -20 c-7 -20 -7 -20 8 -1 8 11 15 15 15 9
0 -6 7 -14 16 -17 11 -4 15 -2 11 8 -6 16 8 15 41 -2 14 -8 22 -9 22 -2 0 5
-5 10 -12 10 -6 0 -8 3 -5 7 4 3 17 -2 29 -13 17 -15 20 -16 16 -3 -4 10 -1
16 8 16 8 0 13 -6 10 -14 -3 -7 -1 -13 4 -13 9 0 14 14 11 32 0 4 6 5 13 2 8
-3 13 -13 10 -22 -2 -9 1 -6 8 8 7 14 22 27 33 28 11 2 26 9 33 15 9 7 16 6
25 -3 10 -10 8 -12 -8 -6 -16 6 -18 5 -7 -5 9 -10 15 -10 24 -1 7 7 9 12 5 12
-4 0 -2 6 5 14 15 16 32 11 22 -6 -4 -7 -2 -8 5 -4 6 4 10 15 9 24 -2 9 4 17
12 17 8 1 14 6 12 13 -1 7 3 12 8 12 6 0 10 -6 8 -14 -2 -8 2 -14 7 -13 6 1 9
6 7 11 -2 5 4 6 13 3 11 -5 15 0 15 16 1 22 1 22 13 2 14 -24 34 -30 34 -10 0
7 -7 11 -16 8 -12 -3 -12 -2 2 7 13 9 21 8 33 -4 8 -9 21 -16 27 -15 9 0 8 2
0 6 -26 10 -12 22 13 12 24 -8 25 -8 14 6 -11 13 -10 14 4 9 9 -3 16 -10 16
-16 0 -5 7 -2 16 6 12 12 20 13 35 5 11 -6 17 -15 12 -22 -4 -7 0 -7 10 2 19
15 23 26 5 15 -7 -4 -8 -3 -4 4 8 13 38 17 34 5 -2 -5 2 -9 7 -10 6 -2 10 1
10 6 0 5 3 13 8 17 4 4 7 1 7 -7 0 -11 2 -11 10 1 8 13 10 12 10 -3 0 -10 5
-15 10 -12 6 4 8 10 6 14 -3 4 6 8 20 9 13 1 24 -3 24 -9 0 -5 5 -7 10 -4 8 5
7 12 -2 23 -11 15 -11 15 4 4 13 -10 17 -10 22 0 3 7 4 5 3 -6 -1 -11 5 -20
16 -22 14 -2 15 1 8 10 -11 13 -5 26 11 26 5 0 6 -4 3 -10 -3 -5 -1 -10 4 -10
6 0 11 4 11 9 0 5 7 11 14 14 11 4 13 1 10 -11 -5 -13 -4 -14 4 -3 6 8 15 10
23 5 11 -6 11 -3 -1 12 -8 10 -10 16 -6 12 5 -4 16 -2 24 5 10 8 13 8 9 1 -4
-7 -1 -14 7 -17 10 -4 12 1 9 16 -5 17 -3 20 7 10 14 -12 60 2 60 19 0 5 -5 6
-12 2 -7 -4 -8 -3 -4 5 6 9 11 9 24 -1 13 -11 15 -10 9 4 -5 15 -1 17 24 14
22 -3 27 0 19 9 -7 9 -5 16 7 26 16 13 17 12 5 -2 -10 -14 -10 -18 3 -22 8 -4
14 -3 13 1 -4 14 13 52 23 52 6 0 7 -5 3 -12 -5 -7 -3 -8 5 -4 7 5 10 11 7 14
-3 3 0 12 7 21 11 14 10 14 -5 2 -26 -19 -22 -6 5 20 12 12 17 19 11 16 -7 -4
-14 -1 -17 7 -4 10 0 12 16 8 19 -5 19 -4 6 10 -7 9 -18 13 -23 10 -5 -3 -6 0
-2 7 4 6 11 9 16 6 4 -3 14 3 21 13 12 15 12 16 -2 4 -13 -10 -19 -9 -29 3
-10 12 -9 15 5 15 14 0 15 3 5 15 -6 8 -9 19 -6 24 10 16 -14 24 -32 10 -13
-11 -12 -8 2 9 19 22 19 22 -2 22 -11 0 -24 5 -28 12 -4 6 -3 8 3 5 5 -3 10 0
10 7 0 8 -8 11 -17 9 -18 -5 -64 43 -55 57 3 4 -3 7 -13 6 -10 0 -16 5 -14 13
2 9 -4 12 -18 8 -18 -5 -19 -3 -8 11 11 13 11 15 -4 9 -10 -3 -20 -1 -24 5 -4
6 -3 8 4 4 6 -3 13 -2 16 3 7 11 -13 9 -33 -3 -10 -7 -12 -3 -6 14 4 12 3 20
-1 17 -13 -7 -56 11 -50 21 2 4 -5 14 -17 22 -20 12 -21 12 -8 -3 7 -10 9 -17
3 -17 -15 0 -24 31 -12 45 38 45 274 524 345 699 108 265 217 611 290 916 61
254 153 689 171 810 3 19 7 43 10 52 3 10 7 30 10 45 2 16 9 51 15 79 5 28 12
64 15 80 7 44 31 167 54 279 26 130 88 450 95 495 6 37 34 186 84 455 16 88
32 176 35 195 3 19 8 46 11 60 60 286 76 584 40 746 -16 72 -65 165 -171 329
-21 33 -45 72 -54 87 -88 160 -289 374 -463 496 -244 170 -582 243 -862 187
-45 -9 -157 -56 -183 -76 l-24 -18 -35 52 c-44 66 -85 103 -148 132 -61 29
-313 103 -373 111 -24 3 -63 8 -86 12 -105 18 -322 0 -414 -33 l-65 -23 8 121
c4 67 8 147 10 177 2 30 4 118 6 195 2 146 18 256 38 263 6 2 11 11 11 20 1
24 20 46 58 66 36 18 39 28 17 46 -8 7 -15 16 -15 21 0 18 103 60 158 65 63 5
94 29 86 67 -19 97 -25 141 -20 152 9 23 -33 74 -86 104 -90 52 -291 111 -378
111 -30 0 -45 -7 -70 -31z m-2200 -7676 c0 -5 -5 -15 -10 -23 -7 -12 -9 -10
-7 8 1 19 17 33 17 15z m4260 -43 c0 -5 -5 -10 -11 -10 -5 0 -7 5 -4 10 3 6 8
10 11 10 2 0 4 -4 4 -10z m116 -120 c0 -12 -4 -16 -9 -11 -5 5 -6 14 -3 20 10
15 12 14 12 -9z m-165 -273 c-10 -9 -11 -8 -5 6 3 10 9 15 12 12 3 -3 0 -11
-7 -18z m-3476 -36 c3 -5 2 -12 -3 -15 -5 -3 -9 1 -9 9 0 17 3 19 12 6z m98
-98 c-3 -7 -6 -13 -8 -13 -2 0 -5 6 -8 13 -3 8 1 14 8 14 7 0 11 -6 8 -14z
m792 -23 c3 -6 -1 -7 -9 -4 -18 7 -21 14 -7 14 6 0 13 -4 16 -10z m1395 -26
c0 -8 -19 -13 -24 -6 -3 5 1 9 9 9 8 0 15 -2 15 -3z m130 -30 c0 -2 -9 0 -20
6 -11 6 -20 13 -20 16 0 2 9 0 20 -6 11 -6 20 -13 20 -16z m-1970 -20 c0 -8
-5 -12 -10 -9 -6 4 -8 11 -5 16 9 14 15 11 15 -7z"/>
<path d="M2861 1574 c0 -11 3 -14 6 -6 3 7 2 16 -1 19 -3 4 -6 -2 -5 -13z"/>
<path d="M7010 1403 c0 -6 7 -16 15 -23 13 -11 18 -11 28 0 10 10 9 11 -2 5
-9 -5 -19 -1 -28 10 -7 11 -13 14 -13 8z"/>
<path d="M2750 1237 c0 -2 11 -13 25 -25 14 -12 25 -18 25 -13 0 5 -11 16 -25
25 -14 9 -25 15 -25 13z"/>
<path d="M2856 1162 c-3 -5 1 -9 9 -9 8 0 12 4 9 9 -3 4 -7 8 -9 8 -2 0 -6 -4
-9 -8z"/>
<path d="M6535 921 c-3 -5 -2 -12 3 -15 5 -3 9 1 9 9 0 17 -3 19 -12 6z"/>
<path d="M5010 898 c0 -4 4 -8 9 -8 6 0 12 4 15 8 3 5 -1 9 -9 9 -8 0 -15 -4
-15 -9z"/>
<path d="M5250 880 c0 -6 4 -9 9 -6 5 4 12 1 14 -4 3 -6 4 -5 3 2 -3 15 -26
23 -26 8z"/>
<path d="M5296 868 c3 -5 10 -6 15 -3 13 9 11 12 -6 12 -8 0 -12 -4 -9 -9z"/>
<path d="M5416 851 c9 -9 34 -9 34 -1 0 5 -9 8 -20 7 -10 -1 -17 -3 -14 -6z"/>
<path d="M6165 809 c-11 -16 -1 -19 13 -3 7 8 8 14 3 14 -5 0 -13 -5 -16 -11z"/>
<path d="M3860 771 c0 -6 4 -13 10 -16 6 -3 7 1 4 9 -7 18 -14 21 -14 7z"/>
<path d="M4066 748 c3 -5 10 -6 15 -3 13 9 11 12 -6 12 -8 0 -12 -4 -9 -9z"/>
</g>
</svg>
