<svg fill="#FFFFFF" xmlns="http://www.w3.org/2000/svg" viewBox="0 0 388.4 388.4">
  <path d="M50.7 118.8a49.4 49.4 0 0 1 58.1-54.5A54.3 54.3 0 0 1 143.3 21c14.4-5.4 30.2-5 43.3 1.3a50.5 50.5 0 0 1 25 27c9.2-4.5 19.7-6 30-4.3a8 8 0 0 1-2.7 15.8c-8-1.4-16.4.2-23.2 4.5a57.3 57.3 0 0 1-4.7 31 8 8 0 0 1-14.5-6.7c4.3-9.4 4.7-21 1.2-31.8-3.2-9.7-9.5-17-18-21a39.5 39.5 0 0 0-30.8-.8 38.1 38.1 0 0 0-24.4 38.5 8 8 0 0 1-11.2 8A33.5 33.5 0 0 0 66.6 117a8 8 0 1 1-15.9 1.8zM180 270.4a49.7 49.7 0 0 0 22.4-9.7c3.6 3.2 7.8 5.6 12.5 7.3a8 8 0 0 0 5.3-15.1 22.9 22.9 0 0 1-11-8.1 8 8 0 0 0-12.3-.7 33.6 33.6 0 0 1-52.2-41.9 8 8 0 0 0-5.6-12.5 38 38 0 1 1 42.6-36 8 8 0 0 0 13.8 5.8c2.6-2.8 5.6-5 8.9-6.8a8 8 0 1 0-7.4-14.2l-.9.5a53.5 53.5 0 0 0-60.8-40.2 54 54 0 0 0-9.1 104.2 49.3 49.3 0 0 0 22.3 62 45 45 0 0 1-19.4 19.7c-9 4.8-18.6 5.8-27.6 2.9a39.5 39.5 0 0 1-22.8-20.7 38.1 38.1 0 0 1 8.8-44.7 8 8 0 0 0-2.5-13.5 33.5 33.5 0 0 1-10-57.3 8 8 0 0 0-10.2-12.3 49.4 49.4 0 0 0 4.5 79.5 54.3 54.3 0 0 0-5 55.2 55.6 55.6 0 0 0 32.2 29 52.6 52.6 0 0 0 40-4 60 60 0 0 0 27.1-28.5c5.3 1 10.8 1 16.4 0zM341 142l-21.4 183c-4.6 39.3-16.7 61.7-33.3 61.7-16.2 0-28-21.7-32.4-59.5L232.3 142c-1.5-13.1 2.7-26 12-36.4 7.6-8.6 18-14.7 29.2-17.5L259 33.6a8 8 0 1 1 15.4-4.1l9.3 34.3L299 5.9a8 8 0 1 1 15.5 4.2l-20.7 77a57.7 57.7 0 0 1 35.3 18.5 46.2 46.2 0 0 1 12 36.4zm-23.9-25.8a41.4 41.4 0 0 0-30.5-13.7 41.4 41.4 0 0 0-30.5 13.7c-6.1 7-9 15.4-8 23.9l.3 2.6h35.2a8 8 0 0 1 0 16h-33.3l6.7 57.6h25.2a8 8 0 0 1 0 16H259l10.9 93c4 34.7 13.5 45.4 16.5 45.4 3.2 0 13.1-11.2 17.4-47.5l4-34.7h-10.4a8 8 0 0 1 0-16h12.3l9-77h-32a8 8 0 0 1 0-16h34l4.6-39.4c1-8.5-2-17-8.1-23.9zM208.5 294A8 8 0 0 0 193 297L210 382a8 8 0 0 0 15.7-3.2L208.5 294zm-36.7 23a8 8 0 0 0-15.7 3.2l12.5 61.8a8 8 0 0 0 15.7-3.2L171.8 317z"/>
</svg>
