<svg xmlns="http://www.w3.org/2000/svg" xmlns:xlink="http://www.w3.org/1999/xlink" fill-rule="evenodd" clip-rule="evenodd" viewBox="0 0 144 192">
  <path fill="#fff" fill-rule="nonzero" d="M68.08.06c-5.34.54-7.58.9-11.41 1.91a58.76 58.76 0 0 0-37.88 30.76C13 44.34 11.34 58.56 14.3 70.94c1.47 6.12 3.2 10.14 7.99 18.77 5.2 9.36 6.1 10.82 15.23 24.86 2.14 3.29 4.95 7.64 6.23 9.68 14.85 23.48 23.56 43.91 28.51 66.92.3 1.31.35 1.2.85-1.24 2.02-10.14 6.3-23.33 11-33.96 5.84-13.2 11.83-23.73 24.37-42.83 8.7-13.31 10.95-17.06 15.3-25.75 4.9-9.71 5.88-12.3 7.16-18.57 1.34-6.58 1.26-14.98-.2-22.25-2.22-11.13-8.06-21.67-16.63-30.01C105 7.72 93.25 2.19 79.79.43 77.5.13 69.8-.12 68.09.06z"/>
  <path fill="green" d="M70.32 0h.78l.42.01.42.01.44.01.44.01.45.01.46.02.45.01.46.02.45.02.45.01.44.02.43.03.42.02.4.02.4.02.38.03.36.02.33.03.31.02.29.03.13.01.13.02.12.01.1.02.32.04.32.04.31.05.32.04.3.05.32.05.31.05.31.05.31.05.31.06.31.05.3.06.32.06.3.06.31.06.3.06.31.07.3.06.3.07.31.07.3.06.3.08.3.07.3.07.3.08.3.07.3.08.3.08.3.08.3.08.29.08.29.09.3.08.29.09.29.09.3.09.28.09.3.09.28.1.29.09.29.1.29.09.28.1.29.1.28.1.29.1.28.1.28.11.29.1.28.12.28.1.28.12.28.1.27.12.28.12.28.11.27.12.28.12.27.12.28.12.27.12.27.13.27.12.27.13.27.13.27.12.27.13.27.14.26.13.27.13.26.14.27.13.26.14.26.14.26.14.26.14.26.15.26.14.26.15.26.14.25.15.26.15.25.15.26.15.25.16.25.15.25.16.25.16.25.15.25.16.25.16.25.17.24.16.25.16.24.17.25.17.24.16.24.17.24.18.24.17.24.17.24.18.24.17.23.18.24.18.23.18.24.18.23.18.23.18.23.19.23.18.23.2.23.18.23.19.22.19.23.2.22.18.23.2.22.2.22.2.22.19.22.2.22.2.22.2.22.2.21.2.22.21.21.21.2.2.2.2.2.19.2.2.2.2.19.2.2.2.19.2.19.2.19.2.19.2.19.21.19.2.18.21.19.21.18.2.19.21.18.21.18.21.18.21.18.21.18.22.18.2.18.22.17.22.18.21.17.22.17.21.18.22.17.22.16.21.17.22.17.22.17.22.16.22.16.22.17.23.16.22.16.22.16.22.16.23.15.22.16.23.16.23.15.22.15.23.15.23.15.23.15.23.15.23.15.23.15.23.14.23.14.23.15.23.14.24.14.23.14.23.14.24.13.23.14.24.13.24.14.23.13.24.13.24.13.23.13.24.13.24.12.24.13.24.12.24.13.25.12.24.12.24.12.24.12.25.11.24.12.24.11.25.12.24.1.25.12.24.1.25.12.25.1.24.11.25.1.25.1.25.11.25.1.24.1.25.1.25.1.25.1.26.1.25.09.25.09.25.09.25.09.25.09.26.09.25.08.25.09.26.08.25.08.26.09.25.08.26.07.25.08.26.08.25.07.26.08.26.07.25.07.26.07.26.07.25.07.26.06.26.07.26.06.26.06.26.06.26.06.26.06.26.06.26.05.26.06.26.05.26.07.34.06.34.06.35.06.34.06.35.06.35.06.35.05.35.05.35.05.36.04.35.05.36.04.35.04.36.04.36.04.36.03.36.04.36.03.36.03.36.02.36.03.36.02.36.02.36.02.36.01.36.02.36.01.36.01.36v.36l.02.36v1.79l-.01.36v.36l-.02.35-.01.35-.01.36-.02.35-.02.35-.02.35-.02.34-.03.35-.02.34-.03.35-.03.34-.03.34-.04.34-.04.33-.03.34-.05.33-.04.33-.04.33-.05.33-.05.32-.05.32-.05.32-.06.32-.06.31-.06.32-.06.3-.12.58-.06.28-.06.28-.05.27-.06.27-.06.26-.06.26-.06.26-.06.26-.06.25-.06.24-.07.25-.06.24-.06.25-.07.24-.06.23-.07.24-.07.24-.07.23-.07.24-.07.24-.08.23-.07.24-.08.23-.08.24-.08.24-.09.24-.09.24-.08.24-.1.24-.1.25-.09.25-.1.25-.1.26-.1.26-.11.26-.11.26-.12.27-.12.28-.12.27-.12.29-.13.29-.13.29-.14.3-.14.3-.14.31-.15.32-.15.32-.16.33-.16.34-.17.35-.17.35-.17.36-.18.36-.19.38-.38.78-.4.8-.43.86-.45.89-.4.8-.39.77-.38.75-.38.73-.18.36-.19.35-.18.35-.18.35-.18.34-.18.34-.18.34-.18.33-.18.34-.18.33-.18.33-.18.33-.18.33-.19.33-.18.32-.19.33-.18.33-.2.33-.18.34-.2.33-.2.34-.2.33-.2.35-.2.34-.2.35-.21.35-.22.35-.22.36-.22.37-.22.37-.23.37-.24.38-.24.39-.24.4-.25.4-.26.4-.53.83-.55.87-.57.9-.6.94-.64.98-.66 1.03-.7 1.07-.72 1.11-.76 1.17-.8 1.22-.58.89-.58.87-.56.87-.56.85-.54.84-.54.83-.53.82-.52.81-.5.8-.51.79-.5.77-.48.77-.48.76-.47.75-.47.74-.46.73-.45.73-.44.71-.43.7-.43.7-.42.7-.42.68-.4.68-.41.67-.4.67-.39.66-.38.65-.38.65-.38.64-.37.64-.36.63-.36.63-.35.62-.35.62-.34.62-.34.6-.34.62-.33.6-.33.6-.32.6-.32.6-.32.6-.31.6-.3.59-.31.59-.3.59-.3.59-.3.59-.3.59-.3.59-.28.59-.3.59-.28.59-.28.59-.28.6-.29.59-.28.6-.27.6-.28.6-.28.6-.27.6-.28.61-.27.62-.28.61-.22.5-.22.5-.21.51-.22.51-.22.52-.22.51-.21.52-.22.53-.21.52-.21.53-.21.53-.21.53-.21.54-.21.53-.2.54-.21.54-.2.55-.21.54-.2.55-.2.54-.2.55-.2.55-.2.55-.19.55-.2.55-.18.55-.2.56-.18.55-.18.55-.19.56-.18.55-.18.55-.18.55-.17.56-.18.55-.17.55-.17.55-.17.55-.16.54-.16.55-.16.54-.16.55-.16.54-.15.54-.15.54-.15.53-.15.54-.14.53-.14.53-.14.52-.13.53-.14.52-.13.52-.12.51-.13.51-.12.51-.12.5-.11.51-.11.5-.11.5-.1.48-.11.49-.1.48-.1.48-.08.43-.08.37-.04.17-.04.16-.03.14-.03.13-.03.12-.03.1-.02.1-.03.09-.02.07-.02.03v.03l-.02.02-.01.03-.01.02-.01.01-.01.02-.01.01h-.01l-.01.01h-.01l-.01.01h-.02l-.01-.01-.01-.01-.01-.01-.01-.02-.01-.02-.01-.01-.01-.03-.01-.02-.02-.06-.02-.06-.03-.08-.02-.08-.02-.1-.03-.1-.05-.23-.11-.53-.12-.54-.12-.54-.12-.53-.12-.54-.13-.53-.12-.54-.13-.53-.13-.53-.13-.53-.13-.53-.13-.53-.13-.53-.14-.53-.14-.53-.13-.52-.14-.53-.15-.52-.14-.53-.14-.52-.15-.52-.15-.53-.14-.52-.15-.52-.16-.52-.15-.52-.15-.52-.16-.52-.16-.52-.16-.52-.16-.52-.16-.51-.17-.52-.16-.52-.17-.51-.17-.52-.17-.51-.17-.52-.18-.51-.17-.52-.18-.51-.18-.52-.18-.51-.18-.51-.19-.52-.18-.51-.19-.51-.19-.52-.19-.5-.2-.52-.19-.51-.2-.51-.19-.52-.2-.5-.2-.52-.2-.51-.2-.51-.21-.51-.21-.52-.21-.5-.21-.52-.22-.51-.21-.51-.22-.51-.22-.52-.22-.5-.22-.52-.23-.51-.22-.51-.23-.52-.23-.51-.23-.51-.24-.52-.23-.5-.24-.52-.24-.52-.24-.51-.25-.52-.24-.51-.25-.52-.25-.51-.25-.52-.25-.51-.25-.52-.26-.52-.26-.51-.26-.52-.26-.52-.27-.52-.26-.52-.27-.52-.27-.52-.28-.52-.27-.52-.28-.52-.28-.53-.28-.52-.28-.52-.28-.53-.3-.52-.28-.53-.3-.52-.28-.53-.3-.53-.3-.53-.3-.53-.3-.53-.3-.53-.3-.53-.31-.53-.31-.54-.32-.53-.31-.54-.32-.53-.31-.54-.33-.54-.32-.53-.32-.54-.33-.55-.33-.54-.33-.54-.33-.54-.34-.55-.34-.54-.34-.55-.34-.55-.35-.55-.34-.55-.26-.4-.3-.46-.31-.5-.34-.54-.76-1.18-.82-1.28-.87-1.34-.87-1.36-.87-1.33-.83-1.28-1.62-2.49-1.45-2.23-.66-1.02-.62-.97-.6-.91-.55-.87-.53-.83-.5-.78-.48-.75-.45-.72-.43-.69-.42-.66-.4-.64-.38-.63-.37-.6-.37-.6-.35-.6-.35-.6-.35-.59-.35-.6-.35-.6-.36-.62-.36-.64-.37-.65-.39-.68-.4-.7-.41-.75-.43-.77-.93-1.67-.44-.8-.21-.38-.21-.39-.21-.37-.2-.37-.2-.36-.2-.36-.18-.36-.18-.34-.19-.35-.17-.33-.18-.33-.17-.33-.16-.32-.17-.32-.15-.32-.16-.3-.15-.31-.15-.3-.15-.3-.14-.3-.14-.29-.14-.29-.13-.28-.13-.29-.13-.27-.13-.28-.12-.28-.12-.27-.12-.27-.11-.27-.12-.26-.1-.27-.11-.26-.11-.26-.1-.26-.1-.26-.1-.26-.1-.26-.1-.25-.09-.26-.1-.26-.08-.25-.1-.26-.08-.26-.08-.25-.09-.26-.08-.26-.08-.25-.08-.26-.08-.26-.08-.27-.07-.26-.08-.26-.07-.27-.07-.27-.08-.27-.07-.27-.07-.27-.07-.28-.07-.28-.07-.28-.07-.29-.07-.29-.07-.29-.06-.29-.06-.3-.07-.29-.06-.29-.05-.3-.06-.29-.06-.3-.05-.29-.05-.3-.05-.3-.05-.3-.05-.29-.04-.3-.04-.3-.05-.3-.04-.3-.03-.3-.04-.3-.04-.3-.03-.3-.03-.3-.03-.3-.03-.3-.03-.31-.02-.3-.02-.3-.03-.31-.02-.3-.01-.31-.02-.3-.02-.31-.01-.3-.01-.31-.01-.31-.01-.3v-.31l-.01-.31v-2.15l.01-.3.01-.32.02-.3v-.31l.02-.31.02-.3.02-.32.01-.3.03-.31.02-.31.02-.3.03-.32.02-.3.03-.31.03-.3.04-.32.03-.3.03-.31.04-.3.04-.32.04-.3.04-.3.05-.32.04-.3.05-.3.04-.31.05-.3.06-.31.05-.3.05-.31.06-.3.06-.31.06-.3.06-.31.06-.3.06-.3.07-.3.06-.31.07-.3.07-.3.07-.3.08-.3.07-.3.08-.3.08-.3.08-.3.08-.3.08-.3.08-.3.09-.29.09-.3.09-.3.09-.29.09-.29.1-.3.09-.29.1-.29.1-.29.1-.3.1-.28.1-.3.1-.28.1-.29.11-.29.11-.28.11-.29.12-.29.1-.28.12-.28.12-.29.12-.28.12-.28.12-.28.12-.28.13-.28.12-.28.13-.27.13-.28.13-.28.13-.27.13-.27.14-.28.18-.35.18-.36.19-.36.18-.35.2-.35.18-.35.2-.35.2-.35.19-.35.2-.34.2-.34.2-.34.21-.34.21-.34.21-.34.21-.33.22-.33.21-.34.22-.32.22-.33.23-.33.22-.32.23-.33.23-.32.23-.32.23-.31.24-.32.23-.31.24-.32.24-.3.25-.32.24-.3.25-.3.25-.31.25-.3.25-.3.25-.3.26-.3.26-.3.26-.29.26-.29.26-.29.27-.28.26-.29.27-.28.27-.28.28-.28.27-.28.28-.28.28-.27.28-.27.28-.27.28-.27.28-.27.3-.26.28-.26.29-.26.3-.26.28-.26.3-.25.3-.26.3-.25.3-.25.3-.24.3-.25.3-.24.31-.24.3-.24.32-.23.3-.24.32-.23.32-.23.31-.23.32-.23.32-.22.32-.22.32-.22.33-.22.32-.21.33-.22.32-.2.33-.22.33-.2.34-.2.33-.21.34-.2.33-.2.34-.2.34-.19.34-.2.34-.18.35-.19.34-.18.35-.19.34-.18.35-.17.35-.18.35-.17.36-.18.35-.16.36-.17.35-.17.36-.16.36-.16.36-.15.36-.16.37-.15.36-.15.36-.15.37-.15.37-.14.37-.14.37-.14.37-.14.37-.13.37-.13.38-.13.37-.13.38-.12.38-.12.38-.12.38-.12.38-.11.38-.12.38-.1.39-.11.38-.1.39-.1.35-.1.35-.09.34-.08.33-.09.33-.08.32-.07.31-.07.32-.08.3-.06.32-.07.3-.06.32-.06.3-.06.32-.06.31-.06.32-.05.32-.05.33-.05.34-.05.34-.05.34-.05.36-.05.37-.05.38-.05.39-.04.4-.05.41-.05.43-.05.44-.04.46-.05.47-.05.5-.05.08-.01h.1l.1-.01.1-.01h.12l.13-.01h.27l.3-.02h1.03zm-.68 4h-.3l-.26.01h-.22l-.1.01h-.16l-.05.01h-.08L68 4.1l-.46.04-.45.05-.44.05-.41.05-.4.04-.39.05-.37.04-.36.05-.35.04-.34.05-.33.05-.32.04-.3.05-.31.05-.3.05-.3.05-.28.05-.29.05-.28.05-.28.06-.29.06-.28.06-.29.06-.29.07-.3.06-.3.07-.3.08-.31.08-.32.08-.33.08-.35.1-.36.09-.36.1-.36.1-.36.1-.36.1-.35.1-.36.12-.35.1-.35.12-.35.12-.35.12-.35.12-.35.12-.35.12-.34.13-.35.13-.34.13-.34.14-.35.13-.34.14-.34.14-.33.14-.34.15-.34.14-.33.15-.33.15-.34.16-.33.15-.33.16-.33.16-.32.16-.33.17-.33.16-.32.17-.32.17-.32.17-.32.18-.32.17-.32.18-.32.18-.31.18-.31.19-.32.19-.3.18-.32.2-.3.19-.31.2-.3.19-.31.2-.3.2-.3.2-.3.2-.3.21-.3.21-.3.21-.3.21-.28.22-.3.22-.29.21-.28.22-.3.23-.28.22-.28.23-.28.22-.28.23-.28.24-.28.23-.28.23-.27.24-.28.24-.27.24-.27.24-.27.25-.26.24-.27.25-.26.25-.27.25-.26.26-.26.25-.25.26-.26.26-.25.26-.26.26-.25.27-.24.26-.25.27-.25.27-.24.27-.24.27-.24.28-.24.27-.24.28-.24.28-.23.28-.23.29-.23.28-.23.29-.22.28-.23.3-.22.28-.22.3-.22.3-.22.29-.21.3-.22.3-.2.3-.22.3-.2.3-.21.3-.2.32-.2.3-.2.32-.2.3-.2.32-.2.32-.19.31-.19.32-.19.32-.19.32-.18.32-.18.33-.18.32-.18.33-.18.33-.17.33-.17.33-.17.33-.17.34-.13.25-.12.25-.12.26-.12.25-.12.26-.12.25-.12.26-.11.26-.11.26-.12.26-.1.26-.12.26-.1.26-.11.26-.1.27-.11.26-.1.27-.1.26-.1.27-.1.27-.1.27-.1.27-.09.27-.09.27-.1.27-.08.27-.09.27-.09.27-.08.28-.09.27-.08.28-.08.27-.08.28-.08.28-.08.27-.07.28-.08.28-.07.28-.07.28-.07.27-.07.28-.06.29-.07.28-.06.28-.07.28-.06.28-.06.28-.05.29-.06.28-.06.28-.05.29-.05.28-.05.28-.05.29-.05.28-.05.29-.04.28-.04.29-.05.28-.04.29-.04.29-.03.28-.04.29-.03.29-.04.28-.03.29-.03.28-.03.3-.02.28-.03.29-.02.28-.02.29-.03.29-.01.28-.02.3-.02.28-.01.29-.02.28v.29l-.02.29v.28l-.02.29V59.75l.02.29v.28l.02.29v.28l.02.28.02.29.02.28.01.28.02.29.03.28.02.28.02.28.03.28.03.28.03.28.03.28.03.28.03.28.04.28.04.27.04.28.04.28.04.27.04.28.04.27.05.28.05.27.05.27.05.28.05.27.05.27.06.27.06.27.06.27.05.27.07.27.06.26.06.27.07.27.07.26.06.26.07.26.07.25.06.25.07.25.07.25.07.25.07.24.07.24.08.24.07.24.07.24.08.23.08.24.07.23.08.24.08.23.09.23.08.24.09.23.08.24.1.24.08.23.1.24.1.24.1.24.09.24.1.25.1.25.11.24.11.26.11.25.12.26.12.26.12.26.12.26.13.27.13.28.13.27.14.28.14.29.14.29.14.3.15.29.16.3.15.3.17.32.16.32.17.32.17.33.18.33.18.34.18.34.2.35.18.36.2.36.2.37.21.38.21.38.44.79.92 1.66.43.77.41.73.4.7.38.68.36.64.36.63.35.61.35.6.34.58.34.58.34.58.35.58.36.59.36.6.38.6.39.64.4.65.43.68.45.7.47.75.5.78.52.82.56.86.59.91.62.97.66 1.02 1.44 2.22 1.62 2.49.83 1.28.87 1.34.88 1.36.87 1.34.83 1.29.75 1.18.35.55.33.5.29.47.26.41.35.55.35.56.34.55.35.56.34.55.34.55.34.55.33.55.34.55.33.55.33.55.33.54.32.55.33.54.32.55.31.54.32.54.32.54.3.54.32.54.3.54.31.54.3.54.3.53.3.54.3.54.3.53.3.54.29.53.29.53.28.54.29.53.28.53.28.53.28.53.28.53.28.53.27.53.27.53.27.53.27.52.26.53.27.53.26.53.26.52.26.53.25.52.26.53.25.52.25.53.25.52.24.53.25.52.24.53.24.52.24.52.23.53.24.52.23.52.23.53.23.52.23.52.22.52.23.53.22.52.22.52.22.53.21.52.22.52.21.52.21.53.21.52.2.52.21.52.2.53.21.52.2.52.2.53.2.52.2.52.18.53.2.52.19.53.18.52.2.53.17.52.19.53.18.52.18.53.18.52.17.53.18.53.17.53.17.52.17.53.17.53.17.53.16.53.16.53.17.53.16.53.07.26.06-.18.17-.56.17-.56.17-.56.18-.56.17-.56.18-.57.18-.56.19-.57.18-.56.2-.56.18-.57.2-.56.18-.57.2-.56.2-.56.2-.57.2-.56.2-.56.2-.56.2-.56.2-.55.22-.56.2-.55.21-.56.22-.55.2-.54.22-.55.22-.55.21-.54.22-.54.22-.54.22-.53.22-.54.22-.52.22-.53.23-.52.22-.53.23-.51.22-.52.28-.62.28-.63.28-.62.28-.61.28-.62.29-.6.28-.62.28-.6.3-.61.28-.6.29-.61.3-.6.28-.6.3-.6.3-.6.3-.6.3-.6.31-.61.3-.6.32-.6.32-.61.31-.6.33-.61.32-.61.33-.62.34-.61.33-.62.34-.62.35-.62.35-.63.35-.63.36-.63.37-.64.37-.64.37-.65.38-.65.39-.66.39-.66.4-.67.4-.67.4-.68.42-.69.42-.69.42-.7.44-.7.44-.72.44-.72.46-.73.46-.74.47-.75.47-.75.49-.77.49-.77.5-.78.5-.8.52-.8.52-.81.53-.83.54-.83.55-.85.56-.85.56-.87.58-.88.58-.9.8-1.2.76-1.17.72-1.11.7-1.07.65-1.02.63-.97.6-.93.57-.9.54-.86.52-.82.26-.4.24-.4.24-.38.24-.38.23-.38.23-.36.22-.37.21-.35.22-.36.2-.34.21-.35.2-.34.2-.33.2-.33.2-.33.18-.33.2-.32.18-.33.18-.32.18-.32.18-.32.18-.32.18-.31.18-.32.17-.32.18-.32.17-.33.18-.32.17-.33.18-.33.17-.33.18-.33.18-.34.18-.34.18-.35.18-.35.37-.72.37-.74.39-.76.4-.8.44-.88.43-.85.4-.8.37-.77.18-.36.18-.36.17-.36.17-.34.16-.34.16-.32.15-.32.15-.32.14-.3.14-.3.13-.3.13-.28.13-.28.12-.27.12-.27.11-.26.11-.26.11-.25.1-.25.1-.24.1-.24.1-.24.09-.23.09-.23.08-.22.08-.22.08-.22.08-.22.08-.21.07-.22.07-.2.07-.22.07-.21.07-.21.07-.21.06-.21.06-.21.06-.22.06-.21.06-.22.06-.21.06-.22.06-.23.05-.22.06-.23.06-.23.05-.24.06-.24.06-.25.05-.25.06-.25.05-.26.06-.26.06-.27.11-.56.06-.28.05-.28.05-.28.05-.3.05-.28.05-.3.04-.29.04-.3.05-.3.04-.3.03-.3.04-.31.03-.31.03-.32.03-.31.03-.32.03-.31.02-.32.03-.33.02-.32.02-.32.01-.33.02-.33.01-.33.01-.33.01-.33.01-.33v-.33l.01-.34v-1.34l-.01-.34v-.33l-.02-.34v-.34l-.02-.34-.02-.34-.02-.34-.02-.33-.02-.34-.02-.34-.02-.34-.03-.34-.03-.33-.03-.34-.03-.34-.04-.33-.03-.34-.04-.33-.04-.33-.04-.33-.05-.34-.04-.33-.05-.32-.05-.33-.05-.33-.05-.32-.06-.32-.05-.33-.06-.32-.06-.31-.07-.32-.04-.24-.05-.24-.05-.24-.06-.24-.05-.24-.06-.24-.05-.24-.06-.24-.06-.24-.06-.24-.06-.24-.06-.24-.06-.24-.07-.23-.07-.24-.06-.24-.07-.24-.07-.23-.07-.24-.07-.24-.08-.24-.07-.23-.07-.24-.08-.23-.08-.24-.08-.24-.08-.23-.08-.23-.08-.24-.09-.23-.08-.24-.09-.23-.08-.23-.1-.24-.08-.23-.1-.23-.08-.23-.1-.24-.09-.23-.1-.23-.1-.23-.09-.23-.1-.23-.1-.23-.1-.23-.1-.23-.1-.23-.1-.22-.11-.23-.11-.23-.1-.23-.12-.22-.1-.23-.12-.23-.11-.22-.11-.23-.12-.22-.11-.23-.12-.22-.12-.22-.12-.23-.12-.22-.12-.22-.12-.22-.12-.22-.13-.22-.12-.22-.13-.22-.13-.22-.13-.22-.12-.22-.14-.22-.13-.21-.13-.22-.13-.22-.14-.21-.14-.22-.13-.21-.14-.22-.14-.21-.14-.21-.14-.22-.15-.21-.14-.21-.14-.21-.15-.21-.15-.21-.14-.21-.15-.21-.15-.2-.15-.22-.16-.2-.15-.21-.15-.2-.16-.21-.15-.2-.16-.21-.16-.2-.16-.2-.16-.2-.16-.21-.16-.2-.16-.2-.17-.2-.16-.2-.17-.2-.17-.2-.16-.2-.17-.2-.17-.19-.17-.2-.18-.19-.17-.19-.17-.2-.18-.19-.17-.19-.18-.19-.18-.19-.18-.19-.18-.19-.18-.19-.18-.18-.18-.19-.19-.19-.18-.18-.19-.19-.18-.18-.19-.18-.2-.2-.2-.18-.2-.2-.2-.18-.2-.19-.2-.18-.2-.2-.21-.17-.21-.19-.2-.18-.21-.18-.21-.18-.21-.18-.21-.18-.21-.17-.22-.18-.21-.17-.21-.17-.22-.18-.21-.17-.22-.16-.22-.17-.22-.17-.21-.17-.22-.16-.23-.16-.22-.17-.22-.16-.22-.16-.23-.16-.22-.15-.23-.16-.22-.16-.23-.15-.23-.15-.23-.16-.23-.15-.23-.15-.23-.14-.23-.15-.23-.15-.24-.14-.23-.15-.24-.14-.23-.14-.24-.14-.24-.14-.24-.14-.24-.13-.24-.14-.24-.13-.24-.14-.24-.13-.24-.13-.25-.13-.24-.13-.25-.13-.25-.12-.24-.13-.25-.12-.25-.12-.25-.12-.25-.12-.25-.12-.25-.12-.26-.12-.25-.11-.25-.12-.26-.11-.25-.11-.26-.11-.26-.11-.26-.11-.25-.1-.26-.11-.26-.1-.27-.11-.26-.1-.26-.1-.26-.1-.27-.1-.26-.1-.27-.1-.26-.09-.27-.1-.27-.08-.27-.1-.27-.09-.27-.08-.27-.1-.27-.08-.27-.08-.28-.09-.27-.08-.27-.08-.28-.08-.27-.08-.28-.08-.28-.07-.27-.08-.28-.07-.28-.07-.28-.08-.28-.07-.29-.07-.28-.06-.28-.07-.28-.06-.29-.07-.28-.06-.29-.06-.29-.06-.28-.06-.29-.06-.29-.05-.29-.06-.29-.05-.29-.05-.29-.06-.3-.05-.28-.04-.3-.05-.3-.05-.29-.04-.3-.05-.29-.04-.3-.04-.28-.04h-.07l-.09-.02h-.1l-.1-.02-.26-.02-.28-.02-.3-.03-.34-.02-.36-.02-.37-.03-.4-.02-.4-.02-.42-.02-.43-.02-.43-.02-.45-.01-.44-.02-.44-.01-.44-.02-.44-.01-.43-.01-.43-.01h-.4l-.4-.01h-.4L70.3 4h-.66z"/>
  <path fill="url(#_Radial1)" d="M74.27 31.81l-.15.07-3.92-1.07c-8.92-1.94-9.69.4-12.24 1.8l10.44 5.15 6.6.03-.73-5.98z"/>
  <use width="45.29" height="72.54" x="43.59" y="39.51" transform="matrix(.98455 0 0 .99365 0 0)" xlink:href="#_Image2"/>
  <path fill="url(#_Radial3)" d="M98.35 34.56c-2.37-.63-4.72-.57-6.43.36 0 0-.06-.24-.2-.59-1.33.33-8.43 2.14-9.87 3.88-1.63 1.98 4.1 3 4.1 3l13.95 3.78 5.24 8.24-.28 18.15c2.46-7 5.1-14.57 5.3-15.31.36-1.37 1.51-5.6.5-7.81-1.02-2.22-2.45-6.5-4.39-8.32-1.78-2.63-4.87-4.57-7.92-5.38z"/>
  <path fill="url(#_Radial4)" d="M95.88 41.3c-4.27-1.17-6.35-.8-10.85-1.47-4.8-.71-7.23.1-9.4 1.57-2.16 1.47-1.53 2.97-1.53 2.97l-.45 2.23-2.85 13.19s-4.03 19.19-5.2 22.4a26.92 26.92 0 0 0-1.43 8.58l1.02 16.6c.31-.1.56-.1 1.06.11 6.25 5.47 10.32 6.46 18.83 2.56C93.13 100.93 96.65 94 100.75 83c.3-.75 3.15-8.82 5.65-16a189 189 0 0 0 1.44-7.74c.4-3.13-.3-9.2-2-10.53-1.69-1.34-4.18-5.7-9.07-7.17-.3-.1-.6-.18-.89-.26z"/>
  <path fill="url(#_Radial5)" d="M58.61 32.85s-2.42-1.14-4.8-1.13c-2.37 0-9.26-1.01-14.08 7.02-1.7 2.84-2.87 8.04-2.34 13.62.15 1.6.7 5.57 1.43 10.52l3.9-.17 4.26-20.85 12.23-3.5 8.42-1.12c-2.16-1.4-5.5-3.82-9.02-4.39z"/>
  <path fill="url(#_Radial6)" d="M85.1 30.15c-1.15-.31-2.55-.53-4.37-.54-.89 0-4.35 1.1-5.12 1.53-.76.44-1.49.74-1.49.74l-.12-.04 3.46 9.04 14.42-6.1a4.36 4.36 0 0 0-2.4-2.8c-1.28-.54-2.48-1.32-4.38-1.83z"/>
  <use width="16.06" height="24.73" x="39.81" y="36" transform="matrix(.9446 0 0 .98932 0 0)" xlink:href="#_Image7"/>
  <path fill="url(#_Radial8)" d="M63.87 36.4c-2.91-.74-6.14-.94-9.38-.9-4.63.04-10.02 5.02-11.77 8.13-2.5 4.44-4.27 11.55-4.32 17.91 1.79 13.79 5.11 37.17 5.55 38.6 2.59 5.75 7.7 9.18 14 9.3 1.7-.35 4.27-1.43 5.8-1.67.82-.12 1.19-.33 1.52-.42l.25-9.4c-.4-4.51-1.08-8.1.57-15.15l3.84-16.33 4.09-18.32c.79-6.54-3.7-8.32-7.37-10.83-.89-.37-1.82-.68-2.79-.93z"/>
  <path fill="url(#_Linear9)" d="M64.6 36.31s6.02 1.35 6.55-.77c.91-3.6 5.27-16.78 5.48-17.54.5-1.83-.63.61 1.22-2.63 1.85-3.23 2.4-2.4 3.46-2.11 1.06.28 4.51 1.87 4.19 3.08-.33 1.21.55 2.75-.85 2.53-1.4-.21-2.4.5-2.4.5s.78.7-.06.8c-.83.09-.89.89-.89.89s-.52-.47-1.1 3.44c-.57 3.9-2.18 8.67-1.63 9.63.55.96 1.5 3.45 2.34 3.9 1.19.6 4.2 1.78 4.2 1.78s-4.44-.18-7.95 1.47c-2.7 1.26-3 3.43-3.1 3.62-.29.64-.62-2.1-3.27-4.52-2.54-2.31-4.9-3.26-6.2-4.07z"/>
  <use width="25.92" height="66" x="62.95" y="44.81" transform="matrix(.99675 0 0 .9851 0 0)" xlink:href="#_Image10"/>
  <use width="17.5" height="64.65" x="40.17" y="37.66" transform="matrix(.97243 0 0 .9946 0 0)" xlink:href="#_Image11"/>
  <use width="14.5" height="25.94" x="69.78" y="16.78" transform="matrix(.96696 0 0 .99761 0 0)" xlink:href="#_Image12"/>
  <use width="44.79" height="15.55" x="43.75" y="99.81" transform="matrix(.99531 0 0 .9719 0 0)" xlink:href="#_Image13"/>
  <use width="20" height="31.05" x="65.45" y="13.61" transform="matrix(.99993 0 0 .97018 0 0)" xlink:href="#_Image14"/>
  <use width="16.99" height="57.83" x="89.72" y="41.81" transform="matrix(.99958 0 0 .99711 0 0)" xlink:href="#_Image15"/>
  <defs>
    <radialGradient id="_Radial1" cx="0" cy="0" r="1" gradientTransform="matrix(1.67534 -4.90371 11.1485 3.8089 69.2 35.8)" gradientUnits="userSpaceOnUse">
      <stop offset="0" stop-color="#fe914f"/>
      <stop offset=".35" stop-color="#ed2713"/>
      <stop offset="1" stop-color="#9e0000"/>
    </radialGradient>
    <radialGradient id="_Radial3" cx="0" cy="0" r="1" gradientTransform="matrix(10.0683 .5267 -.28548 5.45757 95.51 38.04)" gradientUnits="userSpaceOnUse">
      <stop offset="0" stop-color="#fe914f"/>
      <stop offset=".35" stop-color="#ed2713"/>
      <stop offset="1" stop-color="#9e0000"/>
    </radialGradient>
    <radialGradient id="_Radial4" cx="0" cy="0" r="1" gradientTransform="matrix(-16.1841 -3.96388 11.2209 -45.8137 83.2 60.26)" gradientUnits="userSpaceOnUse">
      <stop offset="0" stop-color="#fe914f"/>
      <stop offset=".35" stop-color="#ed2713"/>
      <stop offset="1" stop-color="#9e0000"/>
    </radialGradient>
    <radialGradient id="_Radial5" cx="0" cy="0" r="1" gradientTransform="matrix(10.3044 10.268 -20.0948 19.2801 49.56 35.28)" gradientUnits="userSpaceOnUse">
      <stop offset="0" stop-color="#fe914f"/>
      <stop offset=".35" stop-color="#ed2713"/>
      <stop offset="1" stop-color="#9e0000"/>
    </radialGradient>
    <radialGradient id="_Radial6" cx="0" cy="0" r="1" gradientTransform="matrix(2.73021 -6.56212 6.6477 2.76583 82.03 36.68)" gradientUnits="userSpaceOnUse">
      <stop offset="0" stop-color="#fe914f"/>
      <stop offset=".35" stop-color="#ed2713"/>
      <stop offset="1" stop-color="#9e0000"/>
    </radialGradient>
    <radialGradient id="_Radial8" cx="0" cy="0" r="1" gradientTransform="matrix(-24.8947 -2.02117 3.89837 -48.0156 52.08 52.49)" gradientUnits="userSpaceOnUse">
      <stop offset="0" stop-color="#fe914f"/>
      <stop offset=".35" stop-color="#ed2713"/>
      <stop offset="1" stop-color="#9e0000"/>
    </radialGradient>
    <linearGradient id="_Linear9" x2="1" gradientTransform="rotate(5.44 -287.74 819.98) scale(4.27125)" gradientUnits="userSpaceOnUse">
      <stop offset="0" stop-color="green"/>
      <stop offset="1" stop-color="#002b00"/>
    </linearGradient>
  </defs>
</svg>
